<svg xmlns="http://www.w3.org/2000/svg" xmlns:xlink="http://www.w3.org/1999/xlink" xmlns:lucid="lucid" width="1760" height="1280"><g transform="translate(-40 -20)" lucid:page-tab-id="0_0"><path d="M0 0h1870.4v1323.2H0z" fill="#fff"/><path d="M60 140h600v900H60zM1240 140h540v1140h-540z" stroke="#000" stroke-width="2" fill="#fff"/><path d="M60 140h600v107H60z" stroke="#000" stroke-opacity="0" stroke-width="2" fill="#7ab648"/><use xlink:href="#a" transform="matrix(1,0,0,1,65,145) translate(226.7716049382716 54.72222222222222)"/><use xlink:href="#b" transform="matrix(1,0,0,1,65,145) translate(345.94444444444446 54.72222222222222)"/><path d="M1240 140h540v107h-540z" stroke="#000" stroke-opacity="0" stroke-width="2" fill="#834187"/><use xlink:href="#c" transform="matrix(1,0,0,1,1245,145) translate(180.26543209876542 54.72222222222222)"/><use xlink:href="#d" transform="matrix(1,0,0,1,1245,145) translate(332.45061728395063 54.72222222222222)"/><path d="M1034 293.5c30.93 0 56 23.73 56 53s-25.07 53-56 53H866c-30.93 0-56-23.73-56-53s25.07-53 56-53z" stroke="#000" stroke-width="2" fill="#fff"/><use xlink:href="#e" transform="matrix(1,0,0,1,815,298.5) translate(65.02469135802468 35.55555555555555)"/><use xlink:href="#f" transform="matrix(1,0,0,1,815,298.5) translate(155.85185185185185 35.55555555555555)"/><use xlink:href="#g" transform="matrix(1,0,0,1,815,298.5) translate(83.77777777777777 72.88888888888889)"/><path d="M460 260h160v120H460z" stroke="#000" stroke-width="2" fill="#fff"/><use xlink:href="#h" transform="matrix(1,0,0,1,465,265) translate(47.5 58.6)"/><path d="M1370 560h280v160h-280z" stroke="#000" stroke-width="2" fill="#fff"/><use xlink:href="#i" transform="matrix(1,0,0,1,1375,565) translate(74.125 78.60000000000001)"/><path d="M1370 820h280v160h-280z" stroke="#000" stroke-width="2" fill="#fff"/><use xlink:href="#j" transform="matrix(1,0,0,1,1375,825) translate(74.475 78.60000000000001)"/><use xlink:href="#k" transform="matrix(1,0,0,1,1375,825) translate(142.725 78.60000000000001)"/><path d="M1620 1220c0 11.05-49.25 20-110 20s-110-8.95-110-20v-160c0-11.05 49.25-20 110-20s110 8.95 110 20z" stroke="#000" stroke-width="2" fill="#fff"/><path d="M1620 1060c0 11.05-49.25 20-110 20s-110-8.95-110-20" stroke="#000" stroke-width="2" fill="none"/><use xlink:href="#l" transform="matrix(1,0,0,1,1405,1085) translate(75.025 78.60000000000001)"/><path d="M1510 739.5v61" stroke="#000" stroke-width="2" fill="none"/><path d="M1510 724.24l4.64 14.26h-9.28zM1510 815.76l-4.64-14.26h9.28z" stroke="#000" stroke-width="2"/><path d="M1510 999.5v21" stroke="#000" stroke-width="2" fill="none"/><path d="M1510 984.24l4.64 14.26h-9.28zM1510 1035.76l-4.64-14.26h9.28z" stroke="#000" stroke-width="2"/><path d="M1092 346.5h138v6.5h120.5" stroke="#000" stroke-width="2" fill="none"/><path d="M1092.03 347.5h-1.07l.04-1-.03-1h1.06z"/><path d="M1365.76 353l-14.26 4.64v-9.28z" stroke="#000" stroke-width="2"/><path d="M790.5 346.5H715V320h-75.5" stroke="#000" stroke-width="2" fill="none"/><path d="M805.76 346.5l-14.26 4.64v-9.28zM624.24 320l14.26-4.64v9.28z" stroke="#000" stroke-width="2"/><path d="M100 286.5h160v120H100z" stroke="#000" stroke-width="2" fill="#fff"/><use xlink:href="#m" transform="matrix(1,0,0,1,105,291.5) translate(54.825 58.6)"/><path d="M296.05 315.1H262v-2h34.05zm144.45-.6h-16.55v-2h16.55z"/><path d="M262.03 315.1H261v-2h1.03zM455.76 313.5l-14.26 4.64v-9.28z"/><path d="M459 313.5l-18.5 6v-12zm-16.5 3.26l10.03-3.26-10.03-3.26z"/><use xlink:href="#n" transform="matrix(1,0,0,1,296.05,292.19633812463826) translate(0 14.4)"/><use xlink:href="#o" transform="matrix(1,0,0,1,296.05,292.19633812463826) translate(0 36)"/><use xlink:href="#p" transform="matrix(1,0,0,1,296.05,292.19633812463826) translate(20.95 36)"/><use xlink:href="#q" transform="matrix(1,0,0,1,296.05,292.19633812463826) translate(92.9 36)"/><path d="M120 500h460v280H120z" stroke="#000" stroke-width="2" fill="#fff"/><use xlink:href="#r" transform="matrix(1,0,0,1,125,505) translate(167.125 127.80000000000001)"/><use xlink:href="#s" transform="matrix(1,0,0,1,125,505) translate(182.6 149.4)"/><use xlink:href="#t" transform="matrix(1,0,0,1,125,505) translate(193.54999999999998 149.4)"/><use xlink:href="#u" transform="matrix(1,0,0,1,125,505) translate(250.45 149.4)"/><path d="M462.63 428.5v52h-2v-50h-111.4v-2zm-188.36 0v2H179v-22h2v20z"/><path d="M181 408.53h-2v-1.03h2zM461.63 495.76L457 481.5h9.27z"/><path d="M461.63 499l-6-18.5h12zm-3.26-16.5l3.26 10.03 3.26-10.03z"/><use xlink:href="#v" transform="matrix(1,0,0,1,274.2702344996098,418.7) translate(0 14.4)"/><use xlink:href="#q" transform="matrix(1,0,0,1,274.2702344996098,418.7) translate(39.95 14.4)"/><path d="M260 860h160v120H260z" stroke="#000" stroke-width="2" fill="#fff"/><use xlink:href="#w" transform="matrix(1,0,0,1,265,865) translate(32.37499999999999 58.6)"/><path d="M412 1120c26.5 0 48 26.86 48 60s-21.5 60-48 60H268c-26.5 0-48-26.86-48-60s21.5-60 48-60z" stroke="#000" stroke-width="2" fill="#fff"/><use xlink:href="#x" transform="matrix(1,0,0,1,225,1125) translate(90.05 58.6)"/><path d="M340 1118V999.5" stroke="#000" stroke-width="2" fill="none"/><path d="M341 1119h-2v-1.03h2z"/><path d="M340 984.24l4.64 14.26h-9.28z" stroke="#000" stroke-width="2"/><path d="M340 858v-58.5" stroke="#000" stroke-width="2" fill="none"/><path d="M341 859h-2v-1.03h2z"/><path d="M340 784.24l4.64 14.26h-9.28z" stroke="#000" stroke-width="2"/><path d="M1370 293h260v120h-260z" stroke="#000" stroke-width="2" fill="#fff"/><use xlink:href="#y" transform="matrix(1,0,0,1,1375,298) translate(0 26.19999999999999)"/><use xlink:href="#z" transform="matrix(1,0,0,1,1375,298) translate(0 47.79999999999999)"/><use xlink:href="#A" transform="matrix(1,0,0,1,1375,298) translate(10.95 47.79999999999999)"/><use xlink:href="#z" transform="matrix(1,0,0,1,1375,298) translate(0 69.39999999999999)"/><use xlink:href="#B" transform="matrix(1,0,0,1,1375,298) translate(10.95 69.39999999999999)"/><use xlink:href="#s" transform="matrix(1,0,0,1,1375,298) translate(0 91)"/><use xlink:href="#C" transform="matrix(1,0,0,1,1375,298) translate(10.95 91)"/><use xlink:href="#D" transform="matrix(1,0,0,1,1375,298) translate(75.75000000000001 91)"/><path d="M1500 415v71.5h10v54" stroke="#000" stroke-width="2" fill="none"/><path d="M1501 415.03h-2V414h2z"/><path d="M1510 555.76l-4.64-14.26h9.28z" stroke="#000" stroke-width="2"/><path d="M1368 640H950V419" stroke="#000" stroke-width="2" fill="none"/><path d="M1369 641h-1.03v-2h1.03z"/><path d="M950 403.74l4.64 14.26h-9.28z" stroke="#000" stroke-width="2"/><path d="M299.08 469v29h-2v-27h-49.13v-2zM145 469v2h-17.63v-45h2v43zM133 425h-9.27l4.64-14.26z"/><path d="M134.38 426h-12.02l6-18.5zm-9.27-2h6.53l-3.26-10.03zM299.08 499h-2v-1.03h2z"/><g><use xlink:href="#E" transform="matrix(1,0,0,1,145.00116490639425,459.2) translate(0 14.4)"/><use xlink:href="#q" transform="matrix(1,0,0,1,145.00116490639425,459.2) translate(67.95 14.4)"/></g><path d="M60 40h600v107H60z" stroke="#000" stroke-opacity="0" stroke-width="2" fill="#fff" fill-opacity="0"/><g><use xlink:href="#F" transform="matrix(1,0,0,1,65,45.00000000000001) translate(139.88888888888886 59.16666666666667)"/><use xlink:href="#G" transform="matrix(1,0,0,1,65,45.00000000000001) translate(337.8148148148148 59.16666666666667)"/></g><path d="M1240 40h540v100h-540z" stroke="#000" stroke-opacity="0" stroke-width="2" fill="#fff" fill-opacity="0"/><g><use xlink:href="#H" transform="matrix(1,0,0,1,1245,45) translate(124.7037037037037 55.66666666666667)"/><use xlink:href="#G" transform="matrix(1,0,0,1,1245,45) translate(293 55.66666666666667)"/></g><defs><path fill="#fff" d="M147 0H94L2-248h55l64 206c17-72 42-137 63-206h54" id="I"/><path fill="#fff" d="M238-95c0 69-44 99-111 99C63 4 22-25 22-93v-155h51v151c-1 38 19 59 55 60 90 1 49-130 58-211h52v153" id="J"/><path fill="#fff" d="M24 0v-248h195v40H76v63h132v40H76v65h150V0H24" id="K"/><path fill="#fff" d="M24 0v-54h51V0H24" id="L"/><path fill="#fff" d="M176-78C186 10 51 31 16-35c-5-9-9-19-11-32l52-8c4 21 12 37 35 38 23 0 32-16 32-40v-130H75v-41h101v170" id="M"/><path fill="#fff" d="M169-182c-1-43-94-46-97-3 18 66 151 10 154 114 3 95-165 93-204 36-6-8-10-19-12-30l50-8c3 46 112 56 116 5-17-69-150-10-154-114-4-87 153-88 188-35 5 8 8 18 10 28" id="N"/><g id="a"><use transform="matrix(0.08641975308641976,0,0,0.08641975308641976,0,0)" xlink:href="#I"/><use transform="matrix(0.08641975308641976,0,0,0.08641975308641976,20.740740740740744,0)" xlink:href="#J"/><use transform="matrix(0.08641975308641976,0,0,0.08641975308641976,43.12345679012346,0)" xlink:href="#K"/><use transform="matrix(0.08641975308641976,0,0,0.08641975308641976,63.8641975308642,0)" xlink:href="#L"/><use transform="matrix(0.08641975308641976,0,0,0.08641975308641976,72.50617283950618,0)" xlink:href="#M"/><use transform="matrix(0.08641975308641976,0,0,0.08641975308641976,89.79012345679013,0)" xlink:href="#N"/></g><path fill="#fff" d="M182-182c0 78-84 86-111 141h115V0H12c-6-101 99-100 120-180 1-22-12-31-33-32-23 0-32 14-35 34l-49-3c5-45 32-70 84-70 51 0 83 22 83 69" id="O"/><use transform="matrix(0.08641975308641976,0,0,0.08641975308641976,0,0)" xlink:href="#O" id="b"/><path fill="#fff" d="M24 0v-248h52v208h133V0H24" id="P"/><path fill="#fff" d="M199 0l-22-63H83L61 0H9l90-248h61L250 0h-51zm-33-102l-36-108c-10 38-24 72-36 108h72" id="Q"/><path fill="#fff" d="M240-174c0 40-23 61-54 70L253 0h-59l-57-94H76V0H24v-248c93 4 217-23 216 74zM76-134c48-2 112 12 112-38 0-48-66-32-112-35v73" id="R"/><g id="c"><use transform="matrix(0.08641975308641976,0,0,0.08641975308641976,0,0)" xlink:href="#P"/><use transform="matrix(0.08641975308641976,0,0,0.08641975308641976,18.925925925925927,0)" xlink:href="#Q"/><use transform="matrix(0.08641975308641976,0,0,0.08641975308641976,41.308641975308646,0)" xlink:href="#R"/><use transform="matrix(0.08641975308641976,0,0,0.08641975308641976,63.69135802469137,0)" xlink:href="#Q"/><use transform="matrix(0.08641975308641976,0,0,0.08641975308641976,83.74074074074075,0)" xlink:href="#I"/><use transform="matrix(0.08641975308641976,0,0,0.08641975308641976,104.4814814814815,0)" xlink:href="#K"/><use transform="matrix(0.08641975308641976,0,0,0.08641975308641976,125.22222222222223,0)" xlink:href="#P"/></g><path fill="#fff" d="M139-81c0-46-55-55-73-27H18l9-140h149v37H72l-4 63c44-38 133-4 122 66C201 21 21 35 11-62l49-4c5 18 15 30 39 30 26 0 40-18 40-45" id="S"/><use transform="matrix(0.08641975308641976,0,0,0.08641975308641976,0,0)" xlink:href="#S" id="d"/><path d="M233-177c-1 41-23 64-60 70L243 0h-38l-65-103H63V0H30v-248c88 3 205-21 203 71zM63-129c60-2 137 13 137-47 0-61-80-42-137-45v92" id="T"/><path d="M30 0v-248h187v28H63v79h144v27H63v87h162V0H30" id="U"/><path d="M185-189c-5-48-123-54-124 2 14 75 158 14 163 119 3 78-121 87-175 55-17-10-28-26-33-46l33-7c5 56 141 63 141-1 0-78-155-14-162-118-5-82 145-84 179-34 5 7 8 16 11 25" id="V"/><path d="M127-220V0H93v-220H8v-28h204v28h-85" id="W"/><g id="e"><use transform="matrix(0.08641975308641976,0,0,0.08641975308641976,0,0)" xlink:href="#T"/><use transform="matrix(0.08641975308641976,0,0,0.08641975308641976,22.38271604938272,0)" xlink:href="#U"/><use transform="matrix(0.08641975308641976,0,0,0.08641975308641976,43.12345679012346,0)" xlink:href="#V"/><use transform="matrix(0.08641975308641976,0,0,0.08641975308641976,63.8641975308642,0)" xlink:href="#W"/></g><path d="M205 0l-28-72H64L36 0H1l101-248h38L239 0h-34zm-38-99l-47-123c-12 45-31 82-46 123h93" id="X"/><path d="M30-248c87 1 191-15 191 75 0 78-77 80-158 76V0H30v-248zm33 125c57 0 124 11 124-50 0-59-68-47-124-48v98" id="Y"/><path d="M33 0v-248h34V0H33" id="Z"/><g id="f"><use transform="matrix(0.08641975308641976,0,0,0.08641975308641976,0,0)" xlink:href="#X"/><use transform="matrix(0.08641975308641976,0,0,0.08641975308641976,20.740740740740744,0)" xlink:href="#Y"/><use transform="matrix(0.08641975308641976,0,0,0.08641975308641976,41.48148148148149,0)" xlink:href="#Z"/></g><path d="M87 75C49 33 22-17 22-94c0-76 28-126 65-167h31c-38 41-64 92-64 168S80 34 118 75H87" id="aa"/><path d="M153-248C145-148 188 4 80 4 36 3 13-21 6-62l32-5c4 25 16 42 43 43 27 0 39-20 39-49v-147H72v-28h81" id="ab"/><path d="M140-251c81 0 123 46 123 126C263-46 219 4 140 4 59 4 17-45 17-125s42-126 123-126zm0 227c63 0 89-41 89-101s-29-99-89-99c-61 0-89 39-89 99S79-25 140-24" id="ac"/><path d="M190 0L58-211 59 0H30v-248h39L202-35l-2-213h31V0h-41" id="ad"/><path d="M33-261c38 41 65 92 65 168S71 34 33 75H2C39 34 66-17 66-93S39-220 2-261h31" id="ae"/><g id="g"><use transform="matrix(0.08641975308641976,0,0,0.08641975308641976,0,0)" xlink:href="#aa"/><use transform="matrix(0.08641975308641976,0,0,0.08641975308641976,10.283950617283951,0)" xlink:href="#ab"/><use transform="matrix(0.08641975308641976,0,0,0.08641975308641976,25.839506172839503,0)" xlink:href="#V"/><use transform="matrix(0.08641975308641976,0,0,0.08641975308641976,46.580246913580254,0)" xlink:href="#ac"/><use transform="matrix(0.08641975308641976,0,0,0.08641975308641976,70.77777777777779,0)" xlink:href="#ad"/><use transform="matrix(0.08641975308641976,0,0,0.08641975308641976,93.16049382716051,0)" xlink:href="#ae"/></g><path d="M195 0l-74-108L45 0H8l94-129-87-119h37l69 98 67-98h37l-84 118L233 0h-38" id="af"/><g id="h"><use transform="matrix(0.05,0,0,0.05,0,0)" xlink:href="#X"/><use transform="matrix(0.05,0,0,0.05,12,0)" xlink:href="#af"/><use transform="matrix(0.05,0,0,0.05,24,0)" xlink:href="#Z"/><use transform="matrix(0.05,0,0,0.05,29,0)" xlink:href="#ac"/><use transform="matrix(0.05,0,0,0.05,43,0)" xlink:href="#V"/></g><path d="M212-179c-10-28-35-45-73-45-59 0-87 40-87 99 0 60 29 101 89 101 43 0 62-24 78-52l27 14C228-24 195 4 139 4 59 4 22-46 18-125c-6-104 99-153 187-111 19 9 31 26 39 46" id="ag"/><path d="M30 0v-248h33v221h125V0H30" id="ah"/><g id="i"><use transform="matrix(0.05,0,0,0.05,0,0)" xlink:href="#ag"/><use transform="matrix(0.05,0,0,0.05,12.950000000000001,0)" xlink:href="#ac"/><use transform="matrix(0.05,0,0,0.05,26.950000000000003,0)" xlink:href="#ad"/><use transform="matrix(0.05,0,0,0.05,39.900000000000006,0)" xlink:href="#W"/><use transform="matrix(0.05,0,0,0.05,50.85000000000001,0)" xlink:href="#T"/><use transform="matrix(0.05,0,0,0.05,63.80000000000001,0)" xlink:href="#ac"/><use transform="matrix(0.05,0,0,0.05,77.80000000000001,0)" xlink:href="#ah"/><use transform="matrix(0.05,0,0,0.05,87.80000000000001,0)" xlink:href="#ah"/><use transform="matrix(0.05,0,0,0.05,97.80000000000001,0)" xlink:href="#U"/><use transform="matrix(0.05,0,0,0.05,109.80000000000001,0)" xlink:href="#T"/></g><path d="M240 0l2-218c-23 76-54 145-80 218h-23L58-218 59 0H30v-248h44l77 211c21-75 51-140 76-211h43V0h-30" id="ai"/><path d="M30-248c118-7 216 8 213 122C240-48 200 0 122 0H30v-248zM63-27c89 8 146-16 146-99s-60-101-146-95v194" id="aj"/><g id="j"><use transform="matrix(0.05,0,0,0.05,0,0)" xlink:href="#ai"/><use transform="matrix(0.05,0,0,0.05,14.950000000000001,0)" xlink:href="#ac"/><use transform="matrix(0.05,0,0,0.05,28.950000000000003,0)" xlink:href="#aj"/><use transform="matrix(0.05,0,0,0.05,41.900000000000006,0)" xlink:href="#U"/><use transform="matrix(0.05,0,0,0.05,53.900000000000006,0)" xlink:href="#ah"/></g><g id="k"><use transform="matrix(0.05,0,0,0.05,0,0)" xlink:href="#aa"/><use transform="matrix(0.05,0,0,0.05,5.95,0)" xlink:href="#ac"/><use transform="matrix(0.05,0,0,0.05,19.95,0)" xlink:href="#T"/><use transform="matrix(0.05,0,0,0.05,32.9,0)" xlink:href="#ai"/><use transform="matrix(0.05,0,0,0.05,47.85,0)" xlink:href="#ae"/></g><path d="M179-190L93 31C79 59 56 82 12 73V49c39 6 53-20 64-50L1-190h34L92-34l54-156h33" id="ak"/><path d="M140-251c81 0 123 46 123 126C263-53 228-8 163 1c7 30 30 48 69 40v23c-55 16-95-15-103-61C56-3 17-48 17-125c0-80 42-126 123-126zm0 227c63 0 89-41 89-101s-29-99-89-99c-61 0-89 39-89 99S79-25 140-24" id="al"/><g id="l"><use transform="matrix(0.05,0,0,0.05,0,0)" xlink:href="#ai"/><use transform="matrix(0.05,0,0,0.05,14.950000000000001,0)" xlink:href="#ak"/><use transform="matrix(0.05,0,0,0.05,23.950000000000003,0)" xlink:href="#V"/><use transform="matrix(0.05,0,0,0.05,35.95,0)" xlink:href="#al"/><use transform="matrix(0.05,0,0,0.05,49.95,0)" xlink:href="#ah"/></g><path d="M137 0h-34L2-248h35l83 218 83-218h36" id="am"/><path d="M84 4C-5 8 30-112 23-190h32v120c0 31 7 50 39 49 72-2 45-101 50-169h31l1 190h-30c-1-10 1-25-2-33-11 22-28 36-60 37" id="an"/><path d="M100-194c63 0 86 42 84 106H49c0 40 14 67 53 68 26 1 43-12 49-29l28 8c-11 28-37 45-77 45C44 4 14-33 15-96c1-61 26-98 85-98zm52 81c6-60-76-77-97-28-3 7-6 17-6 28h103" id="ao"/><path d="M141 0L90-78 38 0H4l68-98-65-92h35l48 74 47-74h35l-64 92 68 98h-35" id="ap"/><g id="m"><use transform="matrix(0.05,0,0,0.05,0,0)" xlink:href="#am"/><use transform="matrix(0.05,0,0,0.05,11.35,0)" xlink:href="#an"/><use transform="matrix(0.05,0,0,0.05,21.35,0)" xlink:href="#ao"/><use transform="matrix(0.05,0,0,0.05,31.35,0)" xlink:href="#ap"/></g><path d="M63-220v92h138v28H63V0H30v-248h175v28H63" id="aq"/><path d="M59-47c-2 24 18 29 38 22v24C64 9 27 4 27-40v-127H5v-23h24l9-43h21v43h35v23H59v120" id="ar"/><path d="M96-169c-40 0-48 33-48 73s9 75 48 75c24 0 41-14 43-38l32 2c-6 37-31 61-74 61-59 0-76-41-82-99-10-93 101-131 147-64 4 7 5 14 7 22l-32 3c-4-21-16-35-41-35" id="as"/><path d="M106-169C34-169 62-67 57 0H25v-261h32l-1 103c12-21 28-36 61-36 89 0 53 116 60 194h-32v-121c2-32-8-49-39-48" id="at"/><g id="n"><use transform="matrix(0.05,0,0,0.05,0,0)" xlink:href="#aq"/><use transform="matrix(0.05,0,0,0.05,10.950000000000001,0)" xlink:href="#ao"/><use transform="matrix(0.05,0,0,0.05,20.950000000000003,0)" xlink:href="#ar"/><use transform="matrix(0.05,0,0,0.05,25.950000000000003,0)" xlink:href="#as"/><use transform="matrix(0.05,0,0,0.05,34.95,0)" xlink:href="#at"/></g><path d="M100-194c62-1 85 37 85 99 1 63-27 99-86 99S16-35 15-95c0-66 28-99 85-99zM99-20c44 1 53-31 53-75 0-43-8-75-51-75s-53 32-53 75 10 74 51 75" id="au"/><path d="M114-163C36-179 61-72 57 0H25l-1-190h30c1 12-1 29 2 39 6-27 23-49 58-41v29" id="av"/><g id="o"><use transform="matrix(0.05,0,0,0.05,0,0)" xlink:href="#au"/><use transform="matrix(0.05,0,0,0.05,10,0)" xlink:href="#av"/></g><path d="M145-31C134-9 116 4 85 4 32 4 16-35 15-94c0-59 17-99 70-100 32-1 48 14 60 33 0-11-1-24 2-32h30l-1 268h-32zM93-21c41 0 51-33 51-76s-8-73-50-73c-40 0-46 35-46 75s5 74 45 74" id="aw"/><path d="M135-143c-3-34-86-38-87 0 15 53 115 12 119 90S17 21 10-45l28-5c4 36 97 45 98 0-10-56-113-15-118-90-4-57 82-63 122-42 12 7 21 19 24 35" id="ax"/><g id="p"><use transform="matrix(0.05,0,0,0.05,0,0)" xlink:href="#T"/><use transform="matrix(0.05,0,0,0.05,12.950000000000001,0)" xlink:href="#ao"/><use transform="matrix(0.05,0,0,0.05,22.950000000000003,0)" xlink:href="#aw"/><use transform="matrix(0.05,0,0,0.05,32.95,0)" xlink:href="#an"/><use transform="matrix(0.05,0,0,0.05,42.95,0)" xlink:href="#ao"/><use transform="matrix(0.05,0,0,0.05,52.95,0)" xlink:href="#ax"/><use transform="matrix(0.05,0,0,0.05,61.95,0)" xlink:href="#ar"/></g><path d="M85-194c31 0 48 13 60 33l-1-100h32l1 261h-30c-2-10 0-23-3-31C134-8 116 4 85 4 32 4 16-35 15-94c0-66 23-100 70-100zm9 24c-40 0-46 34-46 75 0 40 6 74 45 74 42 0 51-32 51-76 0-42-9-74-50-73" id="ay"/><path d="M141-36C126-15 110 5 73 4 37 3 15-17 15-53c-1-64 63-63 125-63 3-35-9-54-41-54-24 1-41 7-42 31l-33-3c5-37 33-52 76-52 45 0 72 20 72 64v82c-1 20 7 32 28 27v20c-31 9-61-2-59-35zM48-53c0 20 12 33 32 33 41-3 63-29 60-74-43 2-92-5-92 41" id="az"/><g id="q"><use transform="matrix(0.05,0,0,0.05,0,0)" xlink:href="#ay"/><use transform="matrix(0.05,0,0,0.05,10,0)" xlink:href="#az"/><use transform="matrix(0.05,0,0,0.05,20,0)" xlink:href="#ar"/><use transform="matrix(0.05,0,0,0.05,25,0)" xlink:href="#az"/></g><g id="r"><use transform="matrix(0.05,0,0,0.05,0,0)" xlink:href="#ag"/><use transform="matrix(0.05,0,0,0.05,12.950000000000001,0)" xlink:href="#ac"/><use transform="matrix(0.05,0,0,0.05,26.950000000000003,0)" xlink:href="#ai"/><use transform="matrix(0.05,0,0,0.05,41.900000000000006,0)" xlink:href="#Y"/><use transform="matrix(0.05,0,0,0.05,53.900000000000006,0)" xlink:href="#ac"/><use transform="matrix(0.05,0,0,0.05,67.9,0)" xlink:href="#ad"/><use transform="matrix(0.05,0,0,0.05,80.85000000000001,0)" xlink:href="#U"/><use transform="matrix(0.05,0,0,0.05,92.85000000000001,0)" xlink:href="#ad"/><use transform="matrix(0.05,0,0,0.05,105.80000000000001,0)" xlink:href="#W"/></g><path d="M16-82v-28h88v28H16" id="aA"/><use transform="matrix(0.05,0,0,0.05,0,0)" xlink:href="#aA" id="s"/><path d="M232-93c-1 65-40 97-104 97C67 4 28-28 28-90v-158h33c8 89-33 224 67 224 102 0 64-133 71-224h33v155" id="aB"/><g id="t"><use transform="matrix(0.05,0,0,0.05,0,0)" xlink:href="#ai"/><use transform="matrix(0.05,0,0,0.05,14.950000000000001,0)" xlink:href="#aB"/><use transform="matrix(0.05,0,0,0.05,27.900000000000002,0)" xlink:href="#V"/><use transform="matrix(0.05,0,0,0.05,39.900000000000006,0)" xlink:href="#U"/></g><g id="u"><use transform="matrix(0.05,0,0,0.05,0,0)" xlink:href="#aB"/><use transform="matrix(0.05,0,0,0.05,12.950000000000001,0)" xlink:href="#Z"/></g><path d="M115-194c55 1 70 41 70 98S169 2 115 4C84 4 66-9 55-30l1 105H24l-1-265h31l2 30c10-21 28-34 59-34zm-8 174c40 0 45-34 45-75s-6-73-45-74c-42 0-51 32-51 76 0 43 10 73 51 73" id="aC"/><g id="v"><use transform="matrix(0.05,0,0,0.05,0,0)" xlink:href="#ai"/><use transform="matrix(0.05,0,0,0.05,14.950000000000001,0)" xlink:href="#az"/><use transform="matrix(0.05,0,0,0.05,24.950000000000003,0)" xlink:href="#aC"/></g><g id="w"><use transform="matrix(0.05,0,0,0.05,0,0)" xlink:href="#am"/><use transform="matrix(0.05,0,0,0.05,11.35,0)" xlink:href="#an"/><use transform="matrix(0.05,0,0,0.05,21.35,0)" xlink:href="#ao"/><use transform="matrix(0.05,0,0,0.05,31.35,0)" xlink:href="#T"/><use transform="matrix(0.05,0,0,0.05,44.300000000000004,0)" xlink:href="#au"/><use transform="matrix(0.05,0,0,0.05,54.300000000000004,0)" xlink:href="#an"/><use transform="matrix(0.05,0,0,0.05,64.30000000000001,0)" xlink:href="#ar"/><use transform="matrix(0.05,0,0,0.05,69.30000000000001,0)" xlink:href="#ao"/><use transform="matrix(0.05,0,0,0.05,79.30000000000001,0)" xlink:href="#av"/></g><g id="x"><use transform="matrix(0.05,0,0,0.05,0,0)" xlink:href="#aB"/><use transform="matrix(0.05,0,0,0.05,12.950000000000001,0)" xlink:href="#V"/><use transform="matrix(0.05,0,0,0.05,24.950000000000003,0)" xlink:href="#U"/><use transform="matrix(0.05,0,0,0.05,36.95,0)" xlink:href="#T"/></g><path d="M230 0l2-204L168 0h-37L68-204 70 0H24v-248h70l56 185 57-185h69V0h-46" id="aD"/><path d="M24 0v-248h52V0H24" id="aE"/><path d="M24-248c120-7 223 5 221 122C244-46 201 0 124 0H24v-248zM76-40c74 7 117-18 117-86 0-67-45-88-117-82v168" id="aF"/><path d="M24 0v-248h52v208h133V0H24" id="aG"/><path d="M24 0v-248h195v40H76v63h132v40H76v65h150V0H24" id="aH"/><path d="M275 0h-61l-44-196L126 0H64L0-248h53L97-49l45-199h58l43 199 44-199h52" id="aI"/><path d="M199 0l-22-63H83L61 0H9l90-248h61L250 0h-51zm-33-102l-36-108c-10 38-24 72-36 108h72" id="aJ"/><path d="M240-174c0 40-23 61-54 70L253 0h-59l-57-94H76V0H24v-248c93 4 217-23 216 74zM76-134c48-2 112 12 112-38 0-48-66-32-112-35v73" id="aK"/><g id="y"><use transform="matrix(0.05,0,0,0.05,0,0)" xlink:href="#aD"/><use transform="matrix(0.05,0,0,0.05,14.950000000000001,0)" xlink:href="#aE"/><use transform="matrix(0.05,0,0,0.05,19.950000000000003,0)" xlink:href="#aF"/><use transform="matrix(0.05,0,0,0.05,32.900000000000006,0)" xlink:href="#aF"/><use transform="matrix(0.05,0,0,0.05,45.85000000000001,0)" xlink:href="#aG"/><use transform="matrix(0.05,0,0,0.05,56.80000000000001,0)" xlink:href="#aH"/><use transform="matrix(0.05,0,0,0.05,68.80000000000001,0)" xlink:href="#aI"/><use transform="matrix(0.05,0,0,0.05,84.75000000000001,0)" xlink:href="#aJ"/><use transform="matrix(0.05,0,0,0.05,97.70000000000002,0)" xlink:href="#aK"/><use transform="matrix(0.05,0,0,0.05,110.65000000000003,0)" xlink:href="#aH"/></g><use transform="matrix(0.05,0,0,0.05,0,0)" xlink:href="#aA" id="z"/><path d="M197 0v-115H63V0H30v-248h33v105h134v-105h34V0h-34" id="aL"/><g id="A"><use transform="matrix(0.05,0,0,0.05,0,0)" xlink:href="#X"/><use transform="matrix(0.05,0,0,0.05,12,0)" xlink:href="#aB"/><use transform="matrix(0.05,0,0,0.05,24.950000000000003,0)" xlink:href="#W"/><use transform="matrix(0.05,0,0,0.05,35.900000000000006,0)" xlink:href="#aL"/><use transform="matrix(0.05,0,0,0.05,48.85000000000001,0)" xlink:href="#U"/><use transform="matrix(0.05,0,0,0.05,60.85,0)" xlink:href="#ad"/><use transform="matrix(0.05,0,0,0.05,73.80000000000001,0)" xlink:href="#W"/><use transform="matrix(0.05,0,0,0.05,84.75000000000001,0)" xlink:href="#Z"/><use transform="matrix(0.05,0,0,0.05,89.75000000000001,0)" xlink:href="#ag"/><use transform="matrix(0.05,0,0,0.05,102.7,0)" xlink:href="#X"/><use transform="matrix(0.05,0,0,0.05,113.35000000000002,0)" xlink:href="#W"/><use transform="matrix(0.05,0,0,0.05,124.30000000000003,0)" xlink:href="#Z"/><use transform="matrix(0.05,0,0,0.05,129.3,0)" xlink:href="#ac"/><use transform="matrix(0.05,0,0,0.05,143.3,0)" xlink:href="#ad"/></g><path d="M143 4C61 4 22-44 18-125c-5-107 100-154 193-111 17 8 29 25 37 43l-32 9c-13-25-37-40-76-40-61 0-88 39-88 99 0 61 29 100 91 101 35 0 62-11 79-27v-45h-74v-28h105v86C228-13 192 4 143 4" id="aM"/><g id="B"><use transform="matrix(0.05,0,0,0.05,0,0)" xlink:href="#T"/><use transform="matrix(0.05,0,0,0.05,12.950000000000001,0)" xlink:href="#ac"/><use transform="matrix(0.05,0,0,0.05,26.950000000000003,0)" xlink:href="#aB"/><use transform="matrix(0.05,0,0,0.05,39.900000000000006,0)" xlink:href="#W"/><use transform="matrix(0.05,0,0,0.05,50.85000000000001,0)" xlink:href="#Z"/><use transform="matrix(0.05,0,0,0.05,55.85,0)" xlink:href="#ad"/><use transform="matrix(0.05,0,0,0.05,68.80000000000001,0)" xlink:href="#aM"/></g><g id="C"><use transform="matrix(0.05,0,0,0.05,0,0)" xlink:href="#aq"/><use transform="matrix(0.05,0,0,0.05,10.950000000000001,0)" xlink:href="#U"/><use transform="matrix(0.05,0,0,0.05,22.950000000000003,0)" xlink:href="#W"/><use transform="matrix(0.05,0,0,0.05,33.900000000000006,0)" xlink:href="#ag"/><use transform="matrix(0.05,0,0,0.05,46.85000000000001,0)" xlink:href="#aL"/></g><g id="D"><use transform="matrix(0.05,0,0,0.05,0,0)" xlink:href="#T"/><use transform="matrix(0.05,0,0,0.05,12.950000000000001,0)" xlink:href="#U"/><use transform="matrix(0.05,0,0,0.05,24.950000000000003,0)" xlink:href="#al"/><use transform="matrix(0.05,0,0,0.05,38.95,0)" xlink:href="#aB"/><use transform="matrix(0.05,0,0,0.05,51.900000000000006,0)" xlink:href="#U"/><use transform="matrix(0.05,0,0,0.05,63.900000000000006,0)" xlink:href="#V"/><use transform="matrix(0.05,0,0,0.05,75.9,0)" xlink:href="#W"/></g><path d="M117-194c89-4 53 116 60 194h-32v-121c0-31-8-49-39-48C34-167 62-67 57 0H25l-1-190h30c1 10-1 24 2 32 11-22 29-35 61-36" id="aN"/><path d="M177-190C167-65 218 103 67 71c-23-6-38-20-44-43l32-5c15 47 100 32 89-28v-30C133-14 115 1 83 1 29 1 15-40 15-95c0-56 16-97 71-98 29-1 48 16 59 35 1-10 0-23 2-32h30zM94-22c36 0 50-32 50-73 0-42-14-75-50-75-39 0-46 34-46 75s6 73 46 73" id="aO"/><g id="E"><use transform="matrix(0.05,0,0,0.05,0,0)" xlink:href="#ag"/><use transform="matrix(0.05,0,0,0.05,12.950000000000001,0)" xlink:href="#at"/><use transform="matrix(0.05,0,0,0.05,22.950000000000003,0)" xlink:href="#az"/><use transform="matrix(0.05,0,0,0.05,32.95,0)" xlink:href="#aN"/><use transform="matrix(0.05,0,0,0.05,42.95,0)" xlink:href="#aO"/><use transform="matrix(0.05,0,0,0.05,52.95,0)" xlink:href="#ao"/></g><path d="M76-208v77h127v40H76V0H24v-248h183v40H76" id="aP"/><path d="M140-251c80 0 125 45 125 126S219 4 139 4C58 4 15-44 15-125s44-126 125-126zm-1 214c52 0 73-35 73-88 0-50-21-86-72-86-52 0-73 35-73 86s22 88 72 88" id="aQ"/><path d="M175 0L67-191c6 58 2 128 3 191H24v-248h59L193-55c-6-58-2-129-3-193h46V0h-61" id="aR"/><path d="M136-208V0H84v-208H4v-40h212v40h-80" id="aS"/><g id="F"><use transform="matrix(0.14814814814814817,0,0,0.14814814814814817,0,0)" xlink:href="#aP"/><use transform="matrix(0.14814814814814817,0,0,0.14814814814814817,32.44444444444445,0)" xlink:href="#aK"/><use transform="matrix(0.14814814814814817,0,0,0.14814814814814817,70.81481481481482,0)" xlink:href="#aQ"/><use transform="matrix(0.14814814814814817,0,0,0.14814814814814817,112.2962962962963,0)" xlink:href="#aR"/><use transform="matrix(0.14814814814814817,0,0,0.14814814814814817,150.66666666666669,0)" xlink:href="#aS"/></g><g id="G"><use transform="matrix(0.14814814814814817,0,0,0.14814814814814817,0,0)" xlink:href="#aH"/><use transform="matrix(0.14814814814814817,0,0,0.14814814814814817,35.55555555555556,0)" xlink:href="#aR"/><use transform="matrix(0.14814814814814817,0,0,0.14814814814814817,73.92592592592592,0)" xlink:href="#aF"/></g><path d="M182-130c37 4 62 22 62 59C244 23 116-4 24 0v-248c84 5 203-23 205 63 0 31-19 50-47 55zM76-148c40-3 101 13 101-30 0-44-60-28-101-31v61zm0 110c48-3 116 14 116-37 0-48-69-32-116-35v72" id="aT"/><path d="M67-125c0 53 21 87 73 88 37 1 54-22 65-47l45 17C233-25 199 4 140 4 58 4 20-42 15-125 8-235 124-281 211-232c18 10 29 29 36 50l-46 12c-8-25-30-41-62-41-52 0-71 34-72 86" id="aU"/><path d="M195 0l-88-114-31 24V0H24v-248h52v113l112-113h60L142-143 257 0h-62" id="aV"/><g id="H"><use transform="matrix(0.14814814814814817,0,0,0.14814814814814817,0,0)" xlink:href="#aT"/><use transform="matrix(0.14814814814814817,0,0,0.14814814814814817,38.370370370370374,0)" xlink:href="#aJ"/><use transform="matrix(0.14814814814814817,0,0,0.14814814814814817,76.74074074074075,0)" xlink:href="#aU"/><use transform="matrix(0.14814814814814817,0,0,0.14814814814814817,115.11111111111111,0)" xlink:href="#aV"/></g></defs></g></svg>